<?xml version="1.0"?>
<svg xmlns="http://www.w3.org/2000/svg" height="512px" viewBox="-24 0 512 512.004" width="512px" class=""><g><path d="m318.519531 233.917969c4.140625 0 7.5-3.359375 7.5-7.5v-16.765625c0-4.140625-3.359375-7.5-7.5-7.5s-7.5 3.359375-7.5 7.5v16.765625c0 4.140625 3.359375 7.5 7.5 7.5zm0 0" data-original="#000000" class="active-path" data-old_color="#000000" fill="#FFFFFF"/><path d="m329.933594 243.558594h-22.832032c-4.140624 0-7.5 3.355468-7.5 7.5 0 4.140625 3.359376 7.5 7.5 7.5h22.832032c4.144531 0 7.5-3.359375 7.5-7.5 0-4.144532-3.355469-7.5-7.5-7.5zm0 0" data-original="#000000" class="active-path" data-old_color="#000000" fill="#FFFFFF"/><path d="m146.085938 233.917969c4.144531 0 7.5-3.359375 7.5-7.5v-16.765625c0-4.140625-3.355469-7.5-7.5-7.5-4.140626 0-7.5 3.359375-7.5 7.5v16.765625c0 4.140625 3.359374 7.5 7.5 7.5zm0 0" data-original="#000000" class="active-path" data-old_color="#000000" fill="#FFFFFF"/><path d="m157.503906 243.558594h-22.832031c-4.144531 0-7.5 3.355468-7.5 7.5 0 4.140625 3.355469 7.5 7.5 7.5h22.832031c4.140625 0 7.5-3.359375 7.5-7.5 0-4.144532-3.359375-7.5-7.5-7.5zm0 0" data-original="#000000" class="active-path" data-old_color="#000000" fill="#FFFFFF"/><path d="m252.660156 237.640625c-3.121094-2.726563-7.855468-2.410156-10.585937.710937-2.363281 2.707032-5.925781 4.257813-9.769531 4.257813-3.847657 0-7.410157-1.550781-9.777344-4.257813-2.722656-3.117187-7.460938-3.4375-10.582032-.710937-3.117187 2.726563-3.433593 7.464844-.710937 10.585937 5.214844 5.964844 12.894531 9.382813 21.070313 9.382813 8.171874 0 15.851562-3.417969 21.066406-9.386719 2.726562-3.117187 2.40625-7.855468-.710938-10.582031zm0 0" data-original="#000000" class="active-path" data-old_color="#000000" fill="#FFFFFF"/><path d="m398.113281 327.367188c-13.886719-14.210938-33.199219-22.402344-53.078125-22.402344-20.152344 0-38.445312 8.082031-51.835937 21.164062-14.210938 13.882813-22.402344 33.195313-22.402344 53.074219 0 20.152344 8.082031 38.445313 21.167969 51.84375 11.910156 14.90625 34.6875 22.394531 53.070312 22.394531 18.109375 0 41.28125-7.492187 53.074219-22.402344 13.082031-13.390624 21.164063-31.683593 21.164063-51.835937s-8.082032-38.445313-21.160157-51.835937zm-4.371093 59.335937h10.042968c-1.363281 10.730469-5.601562 20.570313-11.921875 28.722656l-7.085937-7.082031c-2.925782-2.929688-7.675782-2.929688-10.605469 0-2.929687 2.925781-2.929687 7.675781 0 10.605469l7.085937 7.082031c-8.15625 6.324219-17.992187 10.558594-28.722656 11.921875v-10.042969c0-4.140625-3.355468-7.5-7.5-7.5-4.140625 0-7.5 3.359375-7.5 7.5v10.042969c-10.726562-1.363281-20.566406-5.597656-28.71875-11.921875l7.082032-7.082031c2.929687-2.929688 2.929687-7.679688 0-10.605469-2.929688-2.929688-7.675782-2.929688-10.605469 0l-7.082031 7.082031c-6.324219-8.152343-10.5625-17.992187-11.921876-28.722656h10.042969c4.140625 0 7.5-3.355469 7.5-7.5 0-4.140625-3.359375-7.5-7.5-7.5h-10.042969c1.363282-10.726563 5.597657-20.566406 11.921876-28.71875 0 0 7.078124 7.082031 7.082031 7.082031 2.855469 2.855469 7.695312 2.910156 10.605469 0 2.929687-2.925781 2.929687-7.675781 0-10.605468l-7.082032-7.082032c8.152344-6.324218 17.992188-10.558594 28.71875-11.921875v10.042969c0 4.140625 3.359375 7.5 7.5 7.5 4.144532 0 7.5-3.359375 7.5-7.5v-10.042969c10.730469 1.363281 20.566406 5.597657 28.722656 11.921875l-7.085937 7.082032c-2.929687 2.929687-2.929687 7.679687 0 10.605468 2.855469 2.855469 7.695313 2.914063 10.605469 0l7.085937-7.082031c6.320313 8.152344 10.558594 17.992187 11.921875 28.71875h-10.042968c-4.144532 0-7.5 3.359375-7.5 7.5 0 4.144531 3.355468 7.5 7.5 7.5zm0 0" data-original="#000000" class="active-path" data-old_color="#000000" fill="#FFFFFF"/><path d="m364.65625 371.703125h-12.121094v-12.117187c0-4.144532-3.355468-7.5-7.5-7.5-4.140625 0-7.5 3.355468-7.5 7.5v19.617187c0 4.144531 3.359375 7.5 7.5 7.5h19.621094c4.140625 0 7.5-3.355469 7.5-7.5 0-4.140625-3.359375-7.5-7.5-7.5zm0 0" data-original="#000000" class="active-path" data-old_color="#000000" fill="#FFFFFF"/><path d="m413.242188 265.800781c28.320312 0 51.363281-23.042969 51.363281-51.363281 0-14.25-5.839844-27.160156-15.242188-36.476562-8.636719-48.820313-34.683593-93.519532-73.566406-126.09375-39.925781-33.445313-90.886719-51.867188-143.492187-51.867188-45.121094 0-88.53125 13.253906-125.535157 38.328125-3.429687 2.324219-4.328125 6.988281-2.003906 10.417969 2.324219 3.429687 6.988281 4.324218 10.417969 2 34.507812-23.386719 75.007812-35.746094 117.121094-35.746094 49.089843 0 96.628906 17.175781 133.859374 48.367188 32.386719 27.128906 55.203126 63.269531 65.390626 103.082031-.109376-.042969-.21875-.078125-.328126-.117188-6.652343-2.484375-13.820312-3.578125-20.910156-3.160156-1.5.089844-3.003906-.585937-4.351562-1.261719-12.488282-5.070312-24.359375-11.644531-35.496094-19.21875-15.71875-10.691406-29.902344-23.40625-42.839844-37.308594-.011718-.011718-.023437-.023437-.03125-.03125-6.726562-7.398437-14.671875-12.761718-25.132812-9.453124-4.382813 1.367187-7.839844 4.40625-11.601563 6.898437-18.585937 12.3125-53.707031 29.167969-106.71875 29.171875-12.582031 0-25.070312-1.898438-37.625-1.898438-44.984375 0-81.949219 25.625-91.800781 33.121094-.019531 0-3.972656-.144531-5.847656-.050781-3.207032.152344-6.515625.542969-9.617188 1.390625-2.101562.507812-4.171875 1.148438-6.191406 1.914062 9.523438-37.09375 30.160156-71.300781 59.191406-97.667968 3.0625-2.785156 3.292969-7.527344.507813-10.59375-2.785157-3.066406-7.527344-3.292969-10.59375-.507813-35.132813 31.910157-58.824219 74.542969-66.925781 120.292969-9.402344 9.3125-15.23828175 22.222656-15.23828175 36.472656 0 28.320313 23.03906275 51.363282 51.35937475 51.363282.035157 0 .070313-.003907.101563-.003907 16.761718 55.324219 59.878906 99.828125 115.222656 119.8125-6.554688 3.929688-14.207031 9.378907-21.832031 16.765625-17.910157 17.339844-39.257813 49.132813-39.257813 102.125 0 4.140625 3.355469 7.5 7.5 7.5h238.414063c4.140625 0 7.5-3.359375 7.5-7.5 0-8.199218-.523438-16.210937-1.546875-23.917968 16.972656-2.054688 33.066406-8.304688 47.105468-18.394532 3.363282-2.414062 4.132813-7.101562 1.714844-10.464844-2.417968-3.363281-7.105468-4.132812-10.46875-1.714843-14.734375 10.597656-32.636718 16.324219-50.78125 16.324219-33.125 0-64.265625-19.769532-78.585937-49.578126-5.613281-11.691406-8.542969-24.585937-8.542969-37.550781 0-48.042969 39.085938-87.128906 87.128906-87.128906 41.347656 0 78.234375 30.527344 85.710938 71.425781 4.359375 23.835938-1.597656 49.125-16.433594 68.546875-2.515625 3.289063-1.886719 7.996094 1.40625 10.511719 3.289062 2.515625 7.996094 1.886719 10.511719-1.40625 13.695312-17.925781 20.933593-39.347656 20.933593-61.945312 0-35.339844-18.042968-66.542969-45.398437-84.886719 4.605469-9.175781 8.402344-18.722657 11.359375-28.523438.035156-.003906.078125 0 .117188 0zm3.796874-15.195312c1.316407-6.359375 2.273438-12.792969 2.890626-19.273438.003906-.046875.007812-.09375.011718-.140625 1.703125-17.390625.707032-35.078125-2.765625-52.199218-.046875-.234376-.089843-.476563-.136719-.710938.230469.023438.460938.050781.691407.078125 17.921875 2.214844 31.875 18.027344 31.875 36.078125 0 18.769531-14.292969 34.261719-32.566407 36.167969zm-369.472656 0c-18.269531-1.90625-32.5625-17.398438-32.5625-36.167969 0-18.339844 14.335938-34.230469 32.5625-36.15625-2.457031 11.882812-3.703125 24.023438-3.703125 36.15625s1.242188 24.289062 3.703125 36.167969zm107.3125 162.945312c9.078125-8.886719 18.25-14.625 24.863282-18.054687v101.503906h-58.996094c1.433594-34.617188 12.898437-62.667969 34.132812-83.449219zm39.863282-20.144531c.777343.152344 5.035156.902344 5.066406.910156v11.097656c0 6.855469 2.890625 13.449219 7.9375 18.09375l5.039062 4.636719-9.058594 68.855469h-8.984374zm75.121093 54.921875v48.671875h-8.984375l-9.0625-68.855469 2.417969-2.222656c1.179687 2.28125 2.449219 4.519531 3.796875 6.710937 3.421875 5.578126 7.371094 10.84375 11.832031 15.695313zm-44.054687-28.585937-7.90625-7.273438c-1.964844-1.8125-3.09375-4.382812-3.09375-7.058594v-9.160156c.289062.023438.578125.042969.871094.070312 9.019531.773438 18.09375.902344 27.136718.425782.527344-.027344 1.054688-.046875 1.585938-.082032.007812.046876.019531.089844.027344.136719.835937 4.8125 2.019531 9.585938 3.539062 14.230469-.371094.523438-.796875 1-1.265625 1.433594 0 0-7.902344 7.273437-7.90625 7.277344-3.628906 3.339843-9.359375 3.339843-12.988281 0zm-6.953125 77.257812 7.941406-60.34375c1.171875.269531 2.355469.421875 3.554687.527344 2.492188.226562 5.015626.027344 7.457032-.527344l7.941406 60.34375zm66.007812 0v-35.246094c13.191407 9.667969 28.410157 15.9375 44.601563 18.394532.019531.003906.039062.003906.054687.007812 4.25.601562 8.546875 1.066406 12.839844 1.140625.023437 0 .042969.003906.066406.003906.722657 5.085938 1.195313 10.332031 1.425781 15.699219zm94.972657-213.824219c-11.132813-4.019531-22.964844-6.101562-34.800782-6.101562-56.3125 0-102.128906 45.816406-102.128906 102.128906 0 .832031.011719 1.667969.03125 2.507813-.085938.464843-8.808594.304687-9.222656.308593-12.375.097657-24.816406-1.054687-36.949219-3.523437-65.953125-13.324219-118.269531-62.960938-133.4375-126.199219-.003906-.023437-.011719-.046875-.015625-.070313-5.636719-24.003906-5.90625-49.1875-.539062-73.265624.167968-.75.761718-3.214844.878906-3.699219.050781-.039063 2.367187-1.746094 3.492187-2.535157 11.398438-8.003906 39.765625-25.421874 73.136719-27.453124 14.660156-.890626 29.460938 1.710937 44.152344 1.710937 60.019531 0 99.058594-20.40625 118.898437-34.554687.886719-.632813 1.738281-1.367188 2.71875-1.855469 4.578125-2.273438 7.570313 1.714843 10.359375 4.785156 14.625 16.082031 31.230469 30.410156 49.453125 42.277344 10.730469 6.988281 22.269531 13.1875 34.214844 18.070312.367187.148438.726563.304688 1.09375.449219.097656.410156.515625 2.222656.636719 2.714844 4.289062 19.175781 5.214844 39.402344 2.238281 58.917968-.003906.027344-.007813.050782-.011719.078126-2.480468 16.996093-7.644531 33.574218-15.300781 49.015624-2.90625-1.378906-5.878906-2.613281-8.898437-3.707031zm0 0" data-original="#000000" class="active-path" data-old_color="#000000" fill="#FFFFFF"/></g> </svg>
